<?xml version="1.0" encoding="UTF-8" standalone="no"?>
<!-- Created with Inkscape (http://www.inkscape.org/) -->

<svg
   width="180"
   height="60"
   version="1.1"
   viewBox="0 0 180 60"
   xml:space="preserve"
   id="svg141"
   sodipodi:docname="Logo_NEW.svg"
   inkscape:version="1.1.2 (b8e25be833, 2022-02-05)"
   xmlns:inkscape="http://www.inkscape.org/namespaces/inkscape"
   xmlns:sodipodi="http://sodipodi.sourceforge.net/DTD/sodipodi-0.dtd"
   xmlns="http://www.w3.org/2000/svg"
   xmlns:svg="http://www.w3.org/2000/svg"><sodipodi:namedview
     id="namedview143"
     pagecolor="#505050"
     bordercolor="#eeeeee"
     borderopacity="1"
     inkscape:pageshadow="0"
     inkscape:pageopacity="0"
     inkscape:pagecheckerboard="0"
     showgrid="false"
     showguides="true"
     inkscape:guide-bbox="true"
     inkscape:zoom="3.2027778"
     inkscape:cx="135.66349"
     inkscape:cy="60.884649"
     inkscape:window-width="1366"
     inkscape:window-height="705"
     inkscape:window-x="-8"
     inkscape:window-y="-8"
     inkscape:window-maximized="1"
     inkscape:current-layer="svg141"><sodipodi:guide
       position="12.17693,30.02602"
       orientation="0,1"
       id="guide8895"
       inkscape:label=""
       inkscape:locked="true"
       inkscape:color="rgb(0,0,255)" /><sodipodi:guide
       position="12.489159,73.113617"
       orientation="1,0"
       id="guide8933" /><sodipodi:guide
       position="90.234172,52.194276"
       orientation="1,0"
       id="guide9097" /><sodipodi:guide
       position="167.97918,41.89072"
       orientation="1,0"
       id="guide9101" /></sodipodi:namedview><defs
     id="defs5"><clipPath
       id="clipPath100"><path
         d="m0 2e3h2e3v-2e3h-2e3z"
         id="path2" /></clipPath><filter
       inkscape:collect="always"
       style="color-interpolation-filters:sRGB"
       id="filter8411"
       x="-0.021759405"
       y="-0.011390147"
       width="1.0435188"
       height="1.0227803"><feGaussianBlur
         inkscape:collect="always"
         stdDeviation="0.79925027"
         id="feGaussianBlur8413" /></filter><filter
       inkscape:collect="always"
       style="color-interpolation-filters:sRGB"
       id="filter8415"
       x="-0.020322111"
       y="-0.011390147"
       width="1.0406442"
       height="1.0227803"><feGaussianBlur
         inkscape:collect="always"
         stdDeviation="0.79925027"
         id="feGaussianBlur8417" /></filter><filter
       inkscape:collect="always"
       style="color-interpolation-filters:sRGB"
       id="filter8419"
       x="-0.017148939"
       y="-0.011390147"
       width="1.0342979"
       height="1.0227803"><feGaussianBlur
         inkscape:collect="always"
         stdDeviation="0.79925027"
         id="feGaussianBlur8421" /></filter></defs><g
     transform="matrix(0.15632837,0,0,-0.17140833,100.47212,42.66282)"
     id="g9"
     style="fill:#ffffff;stroke:#000000"><path
       d="m 0,0 h 18.303 c 12.2,0 20.354,2.854 24.449,8.556 4.095,5.695 6.146,14.892 6.146,27.579 0,8.189 -1.085,15.054 -3.256,20.594 -2.163,5.539 -5.624,9.711 -10.354,12.523 -4.743,2.806 -11.121,4.215 -19.148,4.215 H 0 Z m 0,94.181 h 16.14 c 7.703,0 13.729,1.086 18.063,3.257 4.334,2.163 7.379,5.659 9.149,10.473 1.768,4.82 2.649,11.079 2.649,18.789 0,8.993 -1.36,15.491 -4.095,19.509 -2.727,4.01 -6.984,6.541 -12.763,7.59 -5.78,1.043 -13.328,1.565 -22.638,1.565 H 0 Z m -27.22,-113.69 v 195.11 h 44.804 c 8.824,0 16.499,-0.966 22.997,-2.89 6.506,-1.931 11.926,-4.905 16.26,-8.916 4.335,-4.017 7.549,-9.113 9.635,-15.293 2.086,-6.188 3.136,-13.455 3.136,-21.8 0,-8.034 -1.008,-14.977 -3.016,-20.833 -2.009,-5.864 -5.054,-10.481 -9.149,-13.849 -4.094,-3.376 -9.359,-5.54 -15.78,-6.506 7.865,-1.769 14.216,-4.778 19.029,-9.035 4.821,-4.257 8.387,-9.719 10.72,-16.379 2.326,-6.668 3.496,-14.653 3.496,-23.963 0,-8.352 -0.966,-15.985 -2.896,-22.885 -1.925,-6.907 -4.934,-12.764 -9.03,-17.584 -4.094,-4.814 -9.316,-8.55 -15.66,-11.2 -6.343,-2.65 -13.848,-3.975 -22.517,-3.975 z"
       fill="#ffffff"
       stroke="#000000"
       id="path7"
       style="stroke:#ffffff;stroke-width:0.608262;stroke-linecap:square;stroke-linejoin:round;stroke-miterlimit:4.2;stroke-dasharray:none;stroke-opacity:1;paint-order:markers stroke fill;filter:url(#filter8411)" /></g><g
     transform="matrix(0.15632837,0,0,-0.17140833,124.12882,34.247729)"
     id="g13"
     style="fill:#ffffff;stroke:#ffffff;stroke-width:0.608262;stroke-linecap:square;stroke-linejoin:round;stroke-miterlimit:4.2;stroke-dasharray:none;stroke-opacity:1;paint-order:markers stroke fill;filter:url(#filter8415)"><path
       d="M 0,0 H 32.519 L 16.14,87.916 Z M -38.538,-68.646 2.89,126.464 H 29.143 L 70.817,-68.646 H 45.043 l -8.916,49.138 H -3.616 l -9.395,-49.138 z"
       fill="#ffffff"
       stroke="#000000"
       id="path11"
       style="stroke:#ffffff;stroke-width:0.608262;stroke-linecap:square;stroke-linejoin:round;stroke-miterlimit:4.2;stroke-dasharray:none;stroke-opacity:1;paint-order:markers stroke fill" /></g><g
     transform="matrix(0.15632837,0,0,-0.17140833,142.03494,46.005263)"
     id="g17"
     style="fill:#ffffff;stroke:#ffffff;stroke-width:0.608262;stroke-linecap:square;stroke-linejoin:round;stroke-miterlimit:4.2;stroke-dasharray:none;stroke-opacity:1;paint-order:markers stroke fill;filter:url(#filter8419)"><path
       d="M 0,0 3.615,195.11 H 30.348 L 64.791,36.86 99.481,195.11 h 26.494 L 129.59,0 H 107.671 L 105.5,141.64 72.502,0 H 57.088 L 24.329,141.64 22.158,0 Z"
       fill="#ffffff"
       stroke="#000000"
       id="path15"
       style="stroke:#ffffff;stroke-width:0.608262;stroke-linecap:square;stroke-linejoin:round;stroke-miterlimit:4.2;stroke-dasharray:none;stroke-opacity:1;paint-order:markers stroke fill" /></g><g
     transform="matrix(0.11037874,0,0,-0.12260331,-21.738187,152.7871)"
     id="g133"
     style="fill:#ffffff;stroke:#ffffff;stroke-opacity:1"><g
       transform="translate(629.59,920.6)"
       id="g91"
       style="stroke:#ffffff;stroke-opacity:1"><path
         d="m 0,0 -21.19,-36.704 h -137.5 l -68.751,119.07 68.751,119.07 H 74.45 l 29.674,51.277 h 13.197 l -8.837,51.384 -50.497,-51.384 H 71.421 L 58.132,229.739 h -233.16 l -85.092,-147.37 84.279,-145.96 0.813,-1.416 h 170.18 l 29.119,50.435 C 15.473,-10.857 7.336,-5.908 0.003,0"
         fill="#ffffff"
         stroke="#000000"
         id="path89"
         style="stroke:#ffffff;stroke-opacity:1" /></g><g
       transform="translate(933.22,1148.9)"
       id="g95"
       style="stroke:#ffffff;stroke-opacity:1"><path
         d="m 0,0 -0.813,1.416 h -170.18 l -31.946,-55.333 c 8.918,-3.458 17.203,-8.129 24.702,-13.819 l 23.584,40.849 h 137.5 l 68.745,-119.07 -68.745,-119.07 h -233.08 l -33.03,-57.208 h -12.596 l 8.837,-51.385 50.497,51.385 h -14.051 l 16.683,28.905 h 233.08 l 85.085,147.37 z"
         fill="#ffffff"
         stroke="#000000"
         id="path93"
         style="stroke:#ffffff;stroke-opacity:1" /></g><g
       transform="translate(622.96,1050)"
       id="g99"
       style="stroke:#ffffff;stroke-opacity:1"><path
         d="m 0,0 c 9.321,-10.667 20.691,-18.916 33.365,-24.374 -0.912,-8.134 -1.434,-16.703 -1.434,-25.639 0,-8.936 0.522,-17.506 1.435,-25.642 -12.675,-5.457 -24.044,-13.705 -33.365,-24.372 -10.06,14.142 -16.04,31.377 -16.04,50.014 0,18.638 5.979,35.872 16.039,50.013"
         fill="#ffffff"
         stroke="#000000"
         id="path97"
         style="stroke:#ffffff;stroke-opacity:1" /></g><g
       transform="translate(693.48,1086.6)"
       id="g103"
       style="stroke:#ffffff;stroke-opacity:1"><path
         d="m 0,0 c 11.539,0 24.079,-22.018 28.933,-56.188 -9.14,-3.234 -18.884,-4.939 -28.9,-4.939 -10.043,0 -19.811,1.709 -28.968,4.95 C -24.08,-22.013 -11.541,0 0,0"
         fill="#ffffff"
         stroke="#000000"
         id="path101"
         style="stroke:#ffffff;stroke-opacity:1" /></g><g
       transform="translate(693.51,1017.9)"
       id="g107"
       style="stroke:#ffffff;stroke-opacity:1"><path
         d="m 0,0 c 10.317,0 20.345,1.729 29.824,4.893 0.738,-7.175 1.182,-14.757 1.182,-22.774 0,-8.019 -0.444,-15.602 -1.182,-22.778 -9.478,3.164 -19.507,4.893 -29.824,4.893 -10.344,0 -20.396,-1.731 -29.894,-4.901 -0.738,7.179 -1.182,14.764 -1.182,22.786 0,8.021 0.444,15.604 1.182,22.782 C -20.396,1.731 -10.344,0 0,0"
         fill="#ffffff"
         stroke="#000000"
         id="path105"
         style="stroke:#ffffff;stroke-opacity:1" /></g><g
       transform="translate(693.48,913.44)"
       id="g111"
       style="stroke:#ffffff;stroke-opacity:1"><path
         d="m 0,0 c -11.541,0 -24.079,22.013 -28.935,56.177 9.158,3.241 18.925,4.95 28.968,4.95 10.016,0 19.76,-1.704 28.9,-4.939 C 24.079,22.018 11.539,0 0,0"
         fill="#ffffff"
         stroke="#000000"
         id="path109"
         style="stroke:#ffffff;stroke-opacity:1" /></g><g
       transform="translate(627.66,943.92)"
       id="g115"
       style="stroke:#ffffff;stroke-opacity:1"><path
         d="M 0,0 C 8.269,9.79 18.373,17.482 29.684,22.69 33.141,-0.143 40.059,-18.488 48.985,-28.814 29.521,-24.96 12.414,-14.548 0,0"
         fill="#ffffff"
         stroke="#000000"
         id="path113"
         style="stroke:#ffffff;stroke-opacity:1" /></g><g
       transform="translate(710.31,915.11)"
       id="g119"
       style="stroke:#ffffff;stroke-opacity:1"><path
         d="M 0,0 C 8.926,10.327 15.844,28.676 19.3,51.511 30.607,46.303 40.712,38.61 48.986,28.815 36.572,14.266 19.465,3.854 0,0"
         fill="#ffffff"
         stroke="#000000"
         id="path117"
         style="stroke:#ffffff;stroke-opacity:1" /></g><g
       transform="translate(764,949.98)"
       id="g123"
       style="stroke:#ffffff;stroke-opacity:1"><path
         d="m 0,0 c -9.324,10.673 -20.693,18.925 -33.363,24.383 0.912,8.134 1.434,16.7 1.434,25.634 0,8.933 -0.522,17.498 -1.433,25.63 12.67,5.458 24.04,13.711 33.363,24.385 C 10.061,85.891 16.041,68.655 16.041,50.017 16.041,31.378 10.061,14.143 0,0"
         fill="#ffffff"
         stroke="#000000"
         id="path121"
         style="stroke:#ffffff;stroke-opacity:1" /></g><g
       transform="translate(759.3,1056.1)"
       id="g127"
       style="stroke:#ffffff;stroke-opacity:1"><path
         d="M 0,0 C -8.274,-9.795 -18.379,-17.489 -29.687,-22.697 -33.142,0.139 -40.06,18.488 -48.986,28.814 -29.521,24.961 -12.414,14.549 0,0"
         fill="#ffffff"
         stroke="#000000"
         id="path125"
         style="stroke:#ffffff;stroke-opacity:1" /></g><g
       transform="translate(676.65,1084.9)"
       id="g131"
       style="stroke:#ffffff;stroke-opacity:1"><path
         d="m 0,0 c -8.926,-10.326 -15.844,-28.671 -19.3,-51.503 -11.312,5.208 -21.416,12.9 -29.685,22.691 C -36.571,-14.265 -19.464,-3.854 0,0"
         fill="#ffffff"
         stroke="#000000"
         id="path129"
         style="stroke:#ffffff;stroke-opacity:1" /></g></g><path
     style="font-variation-settings:'wght' 400;opacity:1;fill:#ffffff;fill-opacity:1;stroke:none;stroke-width:1.44811;stroke-linejoin:round"
     id="path7993"
     d="m 93.603116,51.065259 c 12.765864,-1.289629 25.594594,-1.677443 38.403084,-2.143562 10.00929,-0.330713 20.02266,-0.385513 30.03553,-0.409307 0,0 1.32146,-1.044285 1.32146,-1.044285 v 0 c -10.12374,0.261532 -20.24793,0.498813 -30.37331,0.674119 -12.23964,0.247839 -24.48033,0.442751 -36.718264,0.779734 0,0 -2.6685,2.143301 -2.6685,2.143301 z" /></svg>
